<svg width="154" height="122" viewBox="0 0 154 122" fill="none" xmlns="http://www.w3.org/2000/svg">
<path fill-rule="evenodd" clip-rule="evenodd" d="M32 61V122H60V99H95.5L118.5 122H153.5L130.5 99H154V0H32V61ZM125 29H60V71H125V29Z" fill="#797979"/>
<path fill-rule="evenodd" clip-rule="evenodd" d="M16 61V122H44V99H79.5L102.5 122H137.5L114.5 99H138V0H16V61ZM109 29H44V71H109V29Z" fill="#BABABA"/>
<path fill-rule="evenodd" clip-rule="evenodd" d="M0 61V122H28V99H63.5L86.5 122H121.5L98.5 99H122V0H0V61ZM93 29H28V71H93V29Z" fill="white"/>
</svg>
